G75*
%MOIN*%
%OFA0B0*%
%FSLAX25Y25*%
%IPPOS*%
%LPD*%
%AMOC8*
5,1,8,0,0,1.08239X$1,22.5*
%
%ADD10C,0.08200*%
%ADD11OC8,0.06400*%
%ADD12C,0.12611*%
%ADD13C,0.06400*%
%ADD14C,0.07099*%
%ADD15C,0.06350*%
%ADD16C,0.03500*%
%ADD17C,0.05000*%
D10*
X0023447Y0110795D03*
X0033447Y0110795D03*
X0043447Y0110795D03*
X0053447Y0110795D03*
X0063447Y0110795D03*
X0073447Y0110795D03*
X0083447Y0110795D03*
X0093447Y0110795D03*
X0103447Y0110795D03*
X0113447Y0110795D03*
X0123447Y0110795D03*
X0133447Y0110795D03*
X0133447Y0170795D03*
X0123447Y0170795D03*
X0113447Y0170795D03*
X0103447Y0170795D03*
X0093447Y0170795D03*
X0083447Y0170795D03*
X0073447Y0170795D03*
X0063447Y0170795D03*
X0053447Y0170795D03*
X0043447Y0170795D03*
X0033447Y0170795D03*
X0023447Y0170795D03*
D11*
X0229707Y0164417D03*
X0229707Y0156543D03*
X0229707Y0148669D03*
X0229707Y0140795D03*
X0229707Y0132921D03*
X0229707Y0125047D03*
X0229707Y0117173D03*
X0229707Y0109299D03*
X0229707Y0101425D03*
X0229707Y0093551D03*
X0229707Y0085677D03*
X0229707Y0077803D03*
X0229707Y0069929D03*
X0229707Y0062055D03*
X0229707Y0054181D03*
X0229707Y0046307D03*
X0259707Y0046307D03*
X0259707Y0054181D03*
X0259707Y0062055D03*
X0259707Y0069929D03*
X0259707Y0077803D03*
X0259707Y0085677D03*
X0259707Y0093551D03*
X0259707Y0101425D03*
X0259707Y0109299D03*
X0259707Y0117173D03*
X0259707Y0125047D03*
X0259707Y0132921D03*
X0259707Y0140795D03*
X0259707Y0148669D03*
X0259707Y0156543D03*
X0259707Y0164417D03*
X0347817Y0164417D03*
X0347817Y0156543D03*
X0347817Y0148669D03*
X0347817Y0140795D03*
X0347817Y0132921D03*
X0347817Y0125047D03*
X0347817Y0117173D03*
X0347817Y0109299D03*
X0347817Y0101425D03*
X0347817Y0093551D03*
X0347817Y0085677D03*
X0347817Y0077803D03*
X0347817Y0069929D03*
X0347817Y0062055D03*
X0347817Y0054181D03*
X0347817Y0046307D03*
X0377817Y0046307D03*
X0377817Y0054181D03*
X0377817Y0062055D03*
X0377817Y0069929D03*
X0377817Y0077803D03*
X0377817Y0085677D03*
X0377817Y0093551D03*
X0377817Y0101425D03*
X0377817Y0109299D03*
X0377817Y0117173D03*
X0377817Y0125047D03*
X0377817Y0132921D03*
X0377817Y0140795D03*
X0377817Y0148669D03*
X0377817Y0156543D03*
X0377817Y0164417D03*
X0465928Y0164417D03*
X0465928Y0156543D03*
X0465928Y0148669D03*
X0465928Y0140795D03*
X0465928Y0132921D03*
X0465928Y0125047D03*
X0465928Y0117173D03*
X0465928Y0109299D03*
X0465928Y0101425D03*
X0465928Y0093551D03*
X0465928Y0085677D03*
X0465928Y0077803D03*
X0465928Y0069929D03*
X0465928Y0062055D03*
X0465928Y0054181D03*
X0465928Y0046307D03*
X0495928Y0046307D03*
X0495928Y0054181D03*
X0495928Y0062055D03*
X0495928Y0069929D03*
X0495928Y0077803D03*
X0495928Y0085677D03*
X0495928Y0093551D03*
X0495928Y0101425D03*
X0495928Y0109299D03*
X0495928Y0117173D03*
X0495928Y0125047D03*
X0495928Y0132921D03*
X0495928Y0140795D03*
X0495928Y0148669D03*
X0495928Y0156543D03*
X0495928Y0164417D03*
X0584038Y0164417D03*
X0584038Y0156543D03*
X0584038Y0148669D03*
X0584038Y0140795D03*
X0584038Y0132921D03*
X0584038Y0125047D03*
X0584038Y0117173D03*
X0584038Y0109299D03*
X0584038Y0101425D03*
X0584038Y0093551D03*
X0584038Y0085677D03*
X0584038Y0077803D03*
X0584038Y0069929D03*
X0584038Y0062055D03*
X0584038Y0054181D03*
X0584038Y0046307D03*
X0614038Y0046307D03*
X0614038Y0054181D03*
X0614038Y0062055D03*
X0614038Y0069929D03*
X0614038Y0077803D03*
X0614038Y0085677D03*
X0614038Y0093551D03*
X0614038Y0101425D03*
X0614038Y0109299D03*
X0614038Y0117173D03*
X0614038Y0125047D03*
X0614038Y0132921D03*
X0614038Y0140795D03*
X0614038Y0148669D03*
X0614038Y0156543D03*
X0614038Y0164417D03*
X0150219Y0061307D03*
X0142345Y0061307D03*
X0134471Y0061307D03*
X0126597Y0061307D03*
X0118723Y0061307D03*
X0110849Y0061307D03*
X0102975Y0061307D03*
X0095101Y0061307D03*
X0087227Y0061307D03*
X0079353Y0061307D03*
X0070731Y0069929D03*
X0040731Y0069929D03*
X0079353Y0031307D03*
X0087227Y0031307D03*
X0095101Y0031307D03*
X0102975Y0031307D03*
X0110849Y0031307D03*
X0118723Y0031307D03*
X0126597Y0031307D03*
X0134471Y0031307D03*
X0142345Y0031307D03*
X0150219Y0031307D03*
D12*
X0028172Y0022685D03*
X0308683Y0167331D03*
X0618723Y0022685D03*
D13*
X0557783Y0070362D02*
X0552183Y0070362D01*
X0552183Y0080362D02*
X0557783Y0080362D01*
X0557783Y0090362D02*
X0552183Y0090362D01*
X0552183Y0100362D02*
X0557783Y0100362D01*
X0557783Y0110362D02*
X0552183Y0110362D01*
X0552183Y0120362D02*
X0557783Y0120362D01*
X0557783Y0130362D02*
X0552183Y0130362D01*
X0552183Y0140362D02*
X0557783Y0140362D01*
X0527783Y0140362D02*
X0522183Y0140362D01*
X0522183Y0130362D02*
X0527783Y0130362D01*
X0527783Y0120362D02*
X0522183Y0120362D01*
X0522183Y0110362D02*
X0527783Y0110362D01*
X0527783Y0100362D02*
X0522183Y0100362D01*
X0522183Y0090362D02*
X0527783Y0090362D01*
X0527783Y0080362D02*
X0522183Y0080362D01*
X0522183Y0070362D02*
X0527783Y0070362D01*
X0439672Y0070362D02*
X0434072Y0070362D01*
X0434072Y0080362D02*
X0439672Y0080362D01*
X0439672Y0090362D02*
X0434072Y0090362D01*
X0434072Y0100362D02*
X0439672Y0100362D01*
X0439672Y0110362D02*
X0434072Y0110362D01*
X0434072Y0120362D02*
X0439672Y0120362D01*
X0439672Y0130362D02*
X0434072Y0130362D01*
X0434072Y0140362D02*
X0439672Y0140362D01*
X0409672Y0140362D02*
X0404072Y0140362D01*
X0404072Y0130362D02*
X0409672Y0130362D01*
X0409672Y0120362D02*
X0404072Y0120362D01*
X0404072Y0110362D02*
X0409672Y0110362D01*
X0409672Y0100362D02*
X0404072Y0100362D01*
X0404072Y0090362D02*
X0409672Y0090362D01*
X0409672Y0080362D02*
X0404072Y0080362D01*
X0404072Y0070362D02*
X0409672Y0070362D01*
X0321562Y0070362D02*
X0315962Y0070362D01*
X0315962Y0080362D02*
X0321562Y0080362D01*
X0321562Y0090362D02*
X0315962Y0090362D01*
X0315962Y0100362D02*
X0321562Y0100362D01*
X0321562Y0110362D02*
X0315962Y0110362D01*
X0315962Y0120362D02*
X0321562Y0120362D01*
X0321562Y0130362D02*
X0315962Y0130362D01*
X0315962Y0140362D02*
X0321562Y0140362D01*
X0291562Y0140362D02*
X0285962Y0140362D01*
X0285962Y0130362D02*
X0291562Y0130362D01*
X0291562Y0120362D02*
X0285962Y0120362D01*
X0285962Y0110362D02*
X0291562Y0110362D01*
X0291562Y0100362D02*
X0285962Y0100362D01*
X0285962Y0090362D02*
X0291562Y0090362D01*
X0291562Y0080362D02*
X0285962Y0080362D01*
X0285962Y0070362D02*
X0291562Y0070362D01*
X0203452Y0070362D02*
X0197852Y0070362D01*
X0173452Y0070362D02*
X0167852Y0070362D01*
X0167852Y0080362D02*
X0173452Y0080362D01*
X0173452Y0090362D02*
X0167852Y0090362D01*
X0167852Y0100362D02*
X0173452Y0100362D01*
X0197852Y0100362D02*
X0203452Y0100362D01*
X0203452Y0090362D02*
X0197852Y0090362D01*
X0197852Y0080362D02*
X0203452Y0080362D01*
X0203452Y0110362D02*
X0197852Y0110362D01*
X0173452Y0110362D02*
X0167852Y0110362D01*
X0167852Y0120362D02*
X0173452Y0120362D01*
X0197852Y0120362D02*
X0203452Y0120362D01*
X0203452Y0130362D02*
X0197852Y0130362D01*
X0173452Y0130362D02*
X0167852Y0130362D01*
X0167852Y0140362D02*
X0173452Y0140362D01*
X0197852Y0140362D02*
X0203452Y0140362D01*
D14*
X0207306Y0203000D03*
X0240770Y0203000D03*
X0274235Y0203000D03*
X0307699Y0203000D03*
X0341164Y0203000D03*
X0374628Y0203000D03*
X0408093Y0203000D03*
X0441557Y0203000D03*
X0475022Y0203000D03*
X0508487Y0203000D03*
X0541951Y0203000D03*
X0575416Y0203000D03*
X0608880Y0203000D03*
X0608880Y0239220D03*
X0575416Y0239220D03*
X0541951Y0239220D03*
X0508487Y0239220D03*
X0475022Y0239220D03*
X0441557Y0239220D03*
X0408093Y0239220D03*
X0374628Y0239220D03*
X0341164Y0239220D03*
X0307699Y0239220D03*
X0274235Y0239220D03*
X0240770Y0239220D03*
X0207306Y0239220D03*
X0173841Y0239220D03*
X0140376Y0239220D03*
X0106912Y0239220D03*
X0073447Y0239220D03*
X0039983Y0239220D03*
X0039983Y0203000D03*
X0073447Y0203000D03*
X0106912Y0203000D03*
X0140376Y0203000D03*
X0173841Y0203000D03*
D15*
X0186046Y0205775D02*
X0186046Y0200225D01*
X0195101Y0200225D02*
X0195101Y0205775D01*
X0186046Y0214005D02*
X0186046Y0219554D01*
X0186046Y0226603D02*
X0186046Y0232153D01*
X0186046Y0239202D02*
X0186046Y0244751D01*
X0195101Y0244751D02*
X0195101Y0239202D01*
X0219510Y0239202D02*
X0219510Y0244751D01*
X0228565Y0244751D02*
X0228565Y0239202D01*
X0219510Y0232153D02*
X0219510Y0226603D01*
X0219510Y0219554D02*
X0219510Y0214005D01*
X0219510Y0205775D02*
X0219510Y0200225D01*
X0228565Y0200225D02*
X0228565Y0205775D01*
X0252975Y0205775D02*
X0252975Y0200225D01*
X0262030Y0200225D02*
X0262030Y0205775D01*
X0252975Y0214005D02*
X0252975Y0219554D01*
X0252975Y0226603D02*
X0252975Y0232153D01*
X0252975Y0239202D02*
X0252975Y0244751D01*
X0262030Y0244751D02*
X0262030Y0239202D01*
X0286439Y0239202D02*
X0286439Y0244751D01*
X0295494Y0244751D02*
X0295494Y0239202D01*
X0286439Y0232153D02*
X0286439Y0226603D01*
X0286439Y0219554D02*
X0286439Y0214005D01*
X0286439Y0205775D02*
X0286439Y0200225D01*
X0295494Y0200225D02*
X0295494Y0205775D01*
X0319904Y0205775D02*
X0319904Y0200225D01*
X0328959Y0200225D02*
X0328959Y0205775D01*
X0319904Y0214005D02*
X0319904Y0219554D01*
X0319904Y0226603D02*
X0319904Y0232153D01*
X0319904Y0239202D02*
X0319904Y0244751D01*
X0328959Y0244751D02*
X0328959Y0239202D01*
X0353369Y0239202D02*
X0353369Y0244751D01*
X0362424Y0244751D02*
X0362424Y0239202D01*
X0353369Y0232153D02*
X0353369Y0226603D01*
X0353369Y0219554D02*
X0353369Y0214005D01*
X0353369Y0205775D02*
X0353369Y0200225D01*
X0362424Y0200225D02*
X0362424Y0205775D01*
X0386833Y0205775D02*
X0386833Y0200225D01*
X0395888Y0200225D02*
X0395888Y0205775D01*
X0386833Y0214005D02*
X0386833Y0219554D01*
X0386833Y0226603D02*
X0386833Y0232153D01*
X0386833Y0239202D02*
X0386833Y0244751D01*
X0395888Y0244751D02*
X0395888Y0239202D01*
X0420298Y0239202D02*
X0420298Y0244751D01*
X0429353Y0244751D02*
X0429353Y0239202D01*
X0420298Y0232153D02*
X0420298Y0226603D01*
X0420298Y0219554D02*
X0420298Y0214005D01*
X0420298Y0205775D02*
X0420298Y0200225D01*
X0429353Y0200225D02*
X0429353Y0205775D01*
X0453762Y0205775D02*
X0453762Y0200225D01*
X0462817Y0200225D02*
X0462817Y0205775D01*
X0453762Y0214005D02*
X0453762Y0219554D01*
X0453762Y0226603D02*
X0453762Y0232153D01*
X0453762Y0239202D02*
X0453762Y0244751D01*
X0462817Y0244751D02*
X0462817Y0239202D01*
X0487227Y0239202D02*
X0487227Y0244751D01*
X0496282Y0244751D02*
X0496282Y0239202D01*
X0487227Y0232153D02*
X0487227Y0226603D01*
X0487227Y0219554D02*
X0487227Y0214005D01*
X0487227Y0205775D02*
X0487227Y0200225D01*
X0496282Y0200225D02*
X0496282Y0205775D01*
X0520691Y0205775D02*
X0520691Y0200225D01*
X0529746Y0200225D02*
X0529746Y0205775D01*
X0520691Y0214005D02*
X0520691Y0219554D01*
X0520691Y0226603D02*
X0520691Y0232153D01*
X0520691Y0239202D02*
X0520691Y0244751D01*
X0529746Y0244751D02*
X0529746Y0239202D01*
X0554156Y0239202D02*
X0554156Y0244751D01*
X0563211Y0244751D02*
X0563211Y0239202D01*
X0554156Y0232153D02*
X0554156Y0226603D01*
X0554156Y0219554D02*
X0554156Y0214005D01*
X0554156Y0205775D02*
X0554156Y0200225D01*
X0563211Y0200225D02*
X0563211Y0205775D01*
X0587620Y0205775D02*
X0587620Y0200225D01*
X0596676Y0200225D02*
X0596676Y0205775D01*
X0587620Y0214005D02*
X0587620Y0219554D01*
X0587620Y0226603D02*
X0587620Y0232153D01*
X0587620Y0239202D02*
X0587620Y0244751D01*
X0596676Y0244751D02*
X0596676Y0239202D01*
X0621085Y0239202D02*
X0621085Y0244751D01*
X0621085Y0232153D02*
X0621085Y0226603D01*
X0621085Y0219554D02*
X0621085Y0214005D01*
X0621085Y0205775D02*
X0621085Y0200225D01*
X0161636Y0200225D02*
X0161636Y0205775D01*
X0152581Y0205775D02*
X0152581Y0200225D01*
X0128172Y0200225D02*
X0128172Y0205775D01*
X0119117Y0205775D02*
X0119117Y0200225D01*
X0094707Y0200225D02*
X0094707Y0205775D01*
X0085652Y0205775D02*
X0085652Y0200225D01*
X0061243Y0200225D02*
X0061243Y0205775D01*
X0052187Y0205775D02*
X0052187Y0200225D01*
X0027778Y0200225D02*
X0027778Y0205775D01*
X0052187Y0214005D02*
X0052187Y0219554D01*
X0052187Y0226603D02*
X0052187Y0232153D01*
X0052187Y0239202D02*
X0052187Y0244751D01*
X0061243Y0244751D02*
X0061243Y0239202D01*
X0085652Y0239202D02*
X0085652Y0244751D01*
X0094707Y0244751D02*
X0094707Y0239202D01*
X0085652Y0232153D02*
X0085652Y0226603D01*
X0085652Y0219554D02*
X0085652Y0214005D01*
X0119117Y0214005D02*
X0119117Y0219554D01*
X0119117Y0226603D02*
X0119117Y0232153D01*
X0119117Y0239202D02*
X0119117Y0244751D01*
X0128172Y0244751D02*
X0128172Y0239202D01*
X0152581Y0239202D02*
X0152581Y0244751D01*
X0161636Y0244751D02*
X0161636Y0239202D01*
X0152581Y0232153D02*
X0152581Y0226603D01*
X0152581Y0219554D02*
X0152581Y0214005D01*
X0027778Y0239202D02*
X0027778Y0244751D01*
D16*
X0016361Y0091583D03*
X0016361Y0071898D03*
D17*
X0026203Y0067961D03*
X0026203Y0095520D03*
M02*
