%
M48
M72
T01C0.02000
T02C0.03150
T03C0.03200
T04C0.04000
T05C0.04724
T06C0.06299
T07C0.11811
%
T01
X144612Y80550
X192462Y107775
X152862Y125100
X138012Y116025
X148737Y141600
X156987Y155625
X114087Y163875
X79437Y154800
X30762Y154800
X28287Y177075
X139662Y183675
X142137Y188625
X299712Y125100
X335187Y134175
X339312Y151500
X331062Y172950
X360762Y177075
X453162Y144075
X516687Y117675
X566187Y89625
X547212Y62400
X543912Y58275
X508437Y46725
X501837Y34350
X425937Y64875
X411912Y59925
X303012Y64875
X293112Y60750
X272487Y34350
X283212Y30225
X266712Y21150
X227937Y26100
X306312Y100350
X353337Y106125
T02
X353369Y203000
X362424Y203000
X386833Y203000
X395888Y203000
X420298Y203000
X429353Y203000
X453762Y203000
X462817Y203000
X487227Y203000
X496282Y203000
X520691Y203000
X529746Y203000
X554156Y203000
X563211Y203000
X587620Y203000
X596676Y203000
X621085Y203000
X621085Y216780
X621085Y229378
X621085Y241976
X596676Y241976
X587620Y241976
X563211Y241976
X554156Y241976
X529746Y241976
X520691Y241976
X496282Y241976
X487227Y241976
X462817Y241976
X453762Y241976
X429353Y241976
X420298Y241976
X395888Y241976
X386833Y241976
X362424Y241976
X353369Y241976
X328959Y241976
X319904Y241976
X295494Y241976
X286439Y241976
X262030Y241976
X252975Y241976
X228565Y241976
X219510Y241976
X195101Y241976
X186046Y241976
X161636Y241976
X152581Y241976
X128172Y241976
X119117Y241976
X94707Y241976
X85652Y241976
X61243Y241976
X52187Y241976
X27778Y241976
X52187Y229378
X52187Y216780
X52187Y203000
X61243Y203000
X85652Y203000
X94707Y203000
X119117Y203000
X128172Y203000
X152581Y203000
X161636Y203000
X186046Y203000
X195101Y203000
X219510Y203000
X228565Y203000
X252975Y203000
X262030Y203000
X286439Y203000
X295494Y203000
X319904Y203000
X328959Y203000
X319904Y216780
X319904Y229378
X286439Y229378
X286439Y216780
X252975Y216780
X252975Y229378
X219510Y229378
X219510Y216780
X186046Y216780
X186046Y229378
X152581Y229378
X152581Y216780
X119117Y216780
X119117Y229378
X85652Y229378
X85652Y216780
X27778Y203000
X16361Y91583
X16361Y71898
X353369Y216780
X353369Y229378
X386833Y229378
X386833Y216780
X420298Y216780
X420298Y229378
X453762Y229378
X453762Y216780
X487227Y216780
X487227Y229378
X520691Y229378
X520691Y216780
X554156Y216780
X554156Y229378
X587620Y229378
X587620Y216780
T03
X584038Y164417
X584038Y156543
X584038Y148669
X584038Y140795
X584038Y132921
X584038Y125047
X584038Y117173
X584038Y109299
X584038Y101425
X584038Y93551
X584038Y85677
X584038Y77803
X584038Y69929
X584038Y62055
X584038Y54181
X584038Y46307
X614038Y46307
X614038Y54181
X614038Y62055
X614038Y69929
X614038Y77803
X614038Y85677
X614038Y93551
X614038Y101425
X614038Y109299
X614038Y117173
X614038Y125047
X614038Y132921
X614038Y140795
X614038Y148669
X614038Y156543
X614038Y164417
X554983Y140362
X554983Y130362
X554983Y120362
X554983Y110362
X554983Y100362
X554983Y90362
X554983Y80362
X554983Y70362
X524983Y70362
X524983Y80362
X524983Y90362
X524983Y100362
X524983Y110362
X524983Y120362
X524983Y130362
X524983Y140362
X495928Y140795
X495928Y132921
X495928Y125047
X495928Y117173
X495928Y109299
X495928Y101425
X495928Y93551
X495928Y85677
X495928Y77803
X495928Y69929
X495928Y62055
X495928Y54181
X495928Y46307
X465928Y46307
X465928Y54181
X465928Y62055
X465928Y69929
X465928Y77803
X465928Y85677
X465928Y93551
X465928Y101425
X465928Y109299
X465928Y117173
X465928Y125047
X465928Y132921
X465928Y140795
X465928Y148669
X465928Y156543
X465928Y164417
X495928Y164417
X495928Y156543
X495928Y148669
X436872Y140362
X436872Y130362
X436872Y120362
X436872Y110362
X436872Y100362
X436872Y90362
X436872Y80362
X436872Y70362
X406872Y70362
X406872Y80362
X406872Y90362
X406872Y100362
X406872Y110362
X406872Y120362
X406872Y130362
X406872Y140362
X377817Y140795
X377817Y132921
X377817Y125047
X377817Y117173
X377817Y109299
X377817Y101425
X377817Y93551
X377817Y85677
X377817Y77803
X377817Y69929
X377817Y62055
X377817Y54181
X377817Y46307
X347817Y46307
X347817Y54181
X347817Y62055
X347817Y69929
X347817Y77803
X347817Y85677
X347817Y93551
X347817Y101425
X347817Y109299
X347817Y117173
X347817Y125047
X347817Y132921
X347817Y140795
X347817Y148669
X347817Y156543
X347817Y164417
X377817Y164417
X377817Y156543
X377817Y148669
X318762Y140362
X318762Y130362
X318762Y120362
X318762Y110362
X318762Y100362
X318762Y90362
X318762Y80362
X318762Y70362
X288762Y70362
X288762Y80362
X288762Y90362
X288762Y100362
X288762Y110362
X288762Y120362
X288762Y130362
X288762Y140362
X259707Y140795
X259707Y132921
X259707Y125047
X259707Y117173
X259707Y109299
X259707Y101425
X259707Y93551
X259707Y85677
X259707Y77803
X259707Y69929
X259707Y62055
X259707Y54181
X259707Y46307
X229707Y46307
X229707Y54181
X229707Y62055
X229707Y69929
X229707Y77803
X229707Y85677
X229707Y93551
X229707Y101425
X229707Y109299
X229707Y117173
X229707Y125047
X229707Y132921
X229707Y140795
X229707Y148669
X229707Y156543
X229707Y164417
X259707Y164417
X259707Y156543
X259707Y148669
X200652Y140362
X200652Y130362
X200652Y120362
X200652Y110362
X200652Y100362
X200652Y90362
X200652Y80362
X200652Y70362
X170652Y70362
X170652Y80362
X170652Y90362
X170652Y100362
X170652Y110362
X170652Y120362
X170652Y130362
X170652Y140362
X70731Y69929
X79353Y61307
X87227Y61307
X95101Y61307
X102975Y61307
X110849Y61307
X118723Y61307
X126597Y61307
X134471Y61307
X142345Y61307
X150219Y61307
X150219Y31307
X142345Y31307
X134471Y31307
X126597Y31307
X118723Y31307
X110849Y31307
X102975Y31307
X95101Y31307
X87227Y31307
X79353Y31307
X40731Y69929
T04
X43447Y110795
X33447Y110795
X23447Y110795
X53447Y110795
X63447Y110795
X73447Y110795
X83447Y110795
X93447Y110795
X103447Y110795
X113447Y110795
X123447Y110795
X133447Y110795
X133447Y170795
X123447Y170795
X113447Y170795
X103447Y170795
X93447Y170795
X83447Y170795
X73447Y170795
X63447Y170795
X53447Y170795
X43447Y170795
X33447Y170795
X23447Y170795
T05
X26203Y95520
X26203Y67961
T06
X39983Y203000
X73447Y203000
X106912Y203000
X140376Y203000
X173841Y203000
X207306Y203000
X240770Y203000
X274235Y203000
X307699Y203000
X341164Y203000
X374628Y203000
X408093Y203000
X441557Y203000
X475022Y203000
X508487Y203000
X541951Y203000
X575416Y203000
X608880Y203000
X608880Y239220
X575416Y239220
X541951Y239220
X508487Y239220
X475022Y239220
X441557Y239220
X408093Y239220
X374628Y239220
X341164Y239220
X307699Y239220
X274235Y239220
X240770Y239220
X207306Y239220
X173841Y239220
X140376Y239220
X106912Y239220
X73447Y239220
X39983Y239220
T07
X28172Y22685
X308683Y167331
X618723Y22685
M30
